<svg xmlns="http://www.w3.org/2000/svg" viewBox="-0.020064830780029297 0 184.04006958007812 200.28622436523438">
  <path
    d="M37.73 37.83c-1.55-11.67-.32-23.38-.6-35.06A2.46 2.46 0 0 1 39.62.1c1-.09 2-.1 3.05-.1h134.41c6.81 0 6.84.06 6.84 6.58 0 50.25 0 100.5.1 150.74 0 4.8-1.69 6.06-6.25 6.08-10.49.05-21-.9-31.47.56-2.19-1.12-4.55-1.05-6.92-1.06q-32.7-.14-65.39-.31c0-8.49.28-17-.08-25.47-.2-4.65 1.46-5.77 5.83-5.65 10.53.29 21.06 0 31.59.15 3.65.06 5.23-1 5.15-4.92-.2-9-.23-18 0-27 .1-3.9-1.34-5-5-4.9-10.87.19-21.74 0-32.61.13-3.43 0-5.06-1.12-4.88-4.71a65.39 65.39 0 0 0 0-10.19c-.5-4.65 1.45-5.7 5.8-5.66 20 .18 40.08-.09 60.12.13 5 .06 6.52-1.68 6.33-6.49-.31-7.8-.08-15.62-.1-23.44 0-6.66-.09-6.73-6.92-6.73H37.77z"
    fill="#ffffff"
  ></path>
  <path
    d="M37.73 37.83a12.83 12.83 0 0 0-.33 2v118.54c0 3.4 1.41 4.45 4.57 4.4 10.68-.14 21.36-.14 32-.2q32.7.17 65.39.31c2.37 0 4.73-.06 6.92 1.06.08 10.87.09 21.74.26 32.6.07 4.44-3 3.7-5.61 3.7H26.31c-7.31 0-14.61-.13-21.91 0-3.28.07-4.43-1-4.42-4.4q.12-77.2 0-154.4c0-2.25.17-4.15 3.1-4.09 11.58.31 23.13-.45 34.65.48z"
    fill="#EAE8FF"
  ></path>
</svg>
