<svg width="30" height="19" viewBox="0 0 30 19" fill="none" xmlns="http://www.w3.org/2000/svg">
<path d="M1.25 2.25H28.75C29.3 2.25 29.75 1.8 29.75 1.25C29.75 0.7 29.3 0.25 28.75 0.25H1.25C0.700001 0.25 0.25 0.7 0.25 1.25C0.25 1.8 0.700001 2.25 1.25 2.25Z" fill="black"/>
<path d="M14.75 10.25H28.75C29.3 10.25 29.75 9.8 29.75 9.25C29.75 8.7 29.3 8.25 28.75 8.25H14.75C14.2 8.25 13.75 8.7 13.75 9.25C13.75 9.8 14.2 10.25 14.75 10.25Z" fill="black"/>
<path d="M1.25 18.25H28.75C29.3 18.25 29.75 17.8 29.75 17.25C29.75 16.7 29.3 16.25 28.75 16.25H1.25C0.700001 16.25 0.25 16.7 0.25 17.25C0.25 17.8 0.700001 18.25 1.25 18.25Z" fill="black"/>
</svg>
